<mxfile host="app.diagrams.net" modified="2024-05-16T04:54:17.926Z" agent="Mozilla/5.0 (Windows NT 10.0; Win64; x64) AppleWebKit/537.36 (KHTML, like Gecko) Chrome/122.0.0.0 Safari/537.36 Edg/122.0.0.0" version="24.4.2" etag="v5NL_ues9oBceNoL87Ml" type="github">
  <diagram name="Page-1" id="VADW7fmcTLx_1rjYdHN5">
    <mxGraphModel>
      <root>
        <mxCell id="0" />
        <mxCell id="1" parent="0" />
      </root>
    </mxGraphModel>
  </diagram>
</mxfile>
